<svg xmlns="http://www.w3.org/2000/svg" viewBox="0 0 4939 1000"><defs><style>.cls-1{fill:#50a5dc;}.cls-2{fill:#7ac943;}.cls-3{fill:#fff;stroke:#000;stroke-miterlimit:10;stroke-width:29px;}.cls-4{font-size:900px;font-family:SegoeUI-Semibold, Segoe UI;font-weight:600;}</style></defs><g id="Layer_2" data-name="Layer 2"><path class="cls-1" d="M295.91,788.79a105.83,105.83,0,0,1-49.47-37.26l-31.76-43.4a29.07,29.07,0,0,1-5.56-16.72l-1.43-92.15c-.22-14.08,9.53-26.19,22.86-28.42,14.28-2.38,24.26-16,22.71-31l-2.71-26.18A28.6,28.6,0,0,0,239.72,494l-20-15.48a102.66,102.66,0,0,0-62.83-21.63H143.67a101.14,101.14,0,0,1-16.83-1.41l-46.08-7.77a437.5,437.5,0,0,0-4.36,61.46C76.4,675,169.65,820,308.53,898.39l9.81-71.3C320.64,810.37,311.23,794.3,295.91,788.79Z"/><path class="cls-1" d="M964.28,641.33l-2.73-3.52a28.05,28.05,0,0,0-32.07-9.37l-20.79,7.77a87.62,87.62,0,0,1-41.06,4.95l-6.1-.73c-32.36-3.85-60.29-25.42-73.25-56.58a98.7,98.7,0,0,1-5.8-56.27l12.57-66.24a96.51,96.51,0,0,1,23.7-47.42l5-5.38c20.71-22.47,50.68-32.91,80.18-27.94l33,5.54c.73.12,1.46.27,2.18.46l63.53,16A438.33,438.33,0,0,0,952.41,282.7l-39.93-6c-.58-.09-1.15-.2-1.72-.34l-43.71-10.46c-13.45-3.22-26.17,7.72-25.69,22.1a22.17,22.17,0,0,1-9.5,19.09L803.55,326.4a20.24,20.24,0,0,1-21.87.69l-39.86-23.67c-11.08-6.58-16.69-20-13.78-32.92l9-39.92c3-13.27,14.16-22.77,27.21-23.15l33.78-1c15.66-.46,28.1-13.9,28-30.24l-.23-29.58C747.61,90.92,650.86,58,546.09,58a491.83,491.83,0,0,0-84.87,7.36,109.09,109.09,0,0,1,38,50l1.11,2.92a113.64,113.64,0,0,1,6.71,27.87l1,8.87a114.22,114.22,0,0,1-8.2,56.83L489.27,237a108.83,108.83,0,0,1-40.38,48.86l-13.21,8.67a25.68,25.68,0,0,0-11.33,22.72l1.79,37.2c.74,15.44-11.83,28-26.59,26.5a24.29,24.29,0,0,1-19.1-13.22l-16.22-31.4a24.5,24.5,0,0,0-14.87-12.4L292.05,307.2a45.28,45.28,0,0,0-32.14,2.59l-13.65,6.47c-20.39,9.67-31.43,33-26.39,55.73h0a49.67,49.67,0,0,0,12.58,23.68l37.24,38.83A108.59,108.59,0,0,1,277,443l25.53,32.83a39,39,0,0,0,30.87,15.28L403,490.9a39.33,39.33,0,0,1,34.32,20.48,39.7,39.7,0,0,0,25.9,19.56l26.06,5.83a39.78,39.78,0,0,1,26.45,20.6l12.59,24.06a33.15,33.15,0,0,0,13.8,14l59.15,31.35c12.2,6.47,19.21,20.22,17.51,34.39a34.32,34.32,0,0,1-10.71,21.16L585.59,703a34.08,34.08,0,0,0-8.89,13.47l-4.89,13.62A35.75,35.75,0,0,1,552.5,751l-23.94,10.35c-13,5.63-21.53,18.9-21.53,33.62a37.65,37.65,0,0,1-4,16.9L434.82,947.54A489.44,489.44,0,0,0,546.09,960.3c188.42,0,350.89-106.59,425.72-260.4l-1.13-40.56A30.75,30.75,0,0,0,964.28,641.33Z"/><path class="cls-2" d="M507,794.93c0-14.72,8.5-28,21.53-33.62L552.49,751a35.78,35.78,0,0,0,19.32-20.85l4.89-13.61A34,34,0,0,1,585.59,703l22.47-20.73a34.35,34.35,0,0,0,10.71-21.17c1.7-14.16-5.31-27.92-17.51-34.38L542.1,595.4a33.19,33.19,0,0,1-13.79-14l-12.59-24.07a39.74,39.74,0,0,0-26.45-20.59l-26.07-5.83a39.71,39.71,0,0,1-25.89-19.56A39.31,39.31,0,0,0,403,490.9l-69.55.22a39,39,0,0,1-30.87-15.28L277,443a110.3,110.3,0,0,0-7.35-8.5l-37.24-38.83A49.63,49.63,0,0,1,219.87,372h0c-5-22.76,6-46.06,26.39-55.73l13.65-6.47A45.26,45.26,0,0,1,292,307.2l57.32,16.68a24.5,24.5,0,0,1,14.87,12.4l16.22,31.4a24.28,24.28,0,0,0,19.1,13.22c14.76,1.47,27.32-11.06,26.58-26.5l-1.78-37.2a25.68,25.68,0,0,1,11.33-22.72l13.2-8.67A108.78,108.78,0,0,0,489.27,237l10.6-25.18a114.34,114.34,0,0,0,8.2-56.83l-1-8.87a113.64,113.64,0,0,0-6.71-27.87l-1.11-2.92a109.09,109.09,0,0,0-38-50C263,100.07,108.16,254.4,80.76,447.67l46.08,7.77a102,102,0,0,0,16.83,1.41h13.21a102.66,102.66,0,0,1,62.83,21.63l20,15.48a28.58,28.58,0,0,1,10.83,19.7l2.71,26.18c1.55,15-8.43,28.62-22.71,31-13.34,2.23-23.08,14.34-22.86,28.42l1.43,92.15a29.07,29.07,0,0,0,5.56,16.72l31.76,43.4a105.83,105.83,0,0,0,49.47,37.26c15.32,5.5,24.73,21.57,22.43,38.3l-9.8,71.3a477.89,477.89,0,0,0,126.28,49.14L503,811.82A37.64,37.64,0,0,0,507,794.93Z"/><path class="cls-2" d="M798,206.44l-33.77,1c-13.06.38-24.24,9.89-27.22,23.15l-9,39.93a30.5,30.5,0,0,0,13.78,32.91l39.86,23.68a20.26,20.26,0,0,0,21.87-.7l28.31-19.27a22.19,22.19,0,0,0,9.5-19.1c-.48-14.38,12.24-25.32,25.69-22.1l43.71,10.47c.57.13,1.14.24,1.72.33l39.93,6A460,460,0,0,0,825.74,146.62L826,176.2C826.1,192.55,813.66,206,798,206.44Z"/><path class="cls-2" d="M1002.58,402.6l-63.53-16c-.72-.18-1.45-.33-2.18-.45l-33-5.55c-29.5-5-59.47,5.48-80.18,28l-5,5.38a96.39,96.39,0,0,0-23.7,47.41l-12.57,66.25a98.71,98.71,0,0,0,5.8,56.27c13,31.15,40.89,52.72,73.25,56.58l6.1.72a87.49,87.49,0,0,0,41.06-4.95l20.79-7.76a28,28,0,0,1,32.07,9.36l2.73,3.53a30.72,30.72,0,0,1,6.4,18l1.13,40.56a436,436,0,0,0,30.77-297.29Z"/><path d="M1021.42,397.44h0a459,459,0,0,0-52.53-125.58,477.28,477.28,0,0,0-132.15-142C752.13,69.51,651.62,37.63,546.09,37.63A512,512,0,0,0,458,45.27,497,497,0,0,0,234.1,146c-94.73,75.69-156,181.78-172.62,298.74a457.17,457.17,0,0,0,62.45,302.78c42.41,69.62,103,128,175.31,168.77h0a496.46,496.46,0,0,0,131.3,51.1,508.5,508.5,0,0,0,115.53,13.27c94.6,0,186.4-26.08,265.46-75.41,77.24-48.19,138.67-116,177.64-196.13a457,457,0,0,0,32.23-311.65ZM909.93,255.34l-38.52-9.23a39,39,0,0,0-34.83,8.59,42.7,42.7,0,0,0-14.7,34,1.59,1.59,0,0,1-.68,1.37l-28.3,19.28a1.48,1.48,0,0,1-1.58.05l-39.86-23.68A9.9,9.9,0,0,1,747,275.13l9-39.93a9.4,9.4,0,0,1,8.78-7.46l33.78-1c22.65-.66,41.51-17.91,45.93-40.26A436,436,0,0,1,909.93,255.34Zm-814,253.79c0-12.61.59-25.34,1.76-38l26.08,4.4a120.05,120.05,0,0,0,19.94,1.67h13.21a84.28,84.28,0,0,1,51.22,17.64l20,15.47a8.09,8.09,0,0,1,3.06,5.56L233.88,542a7.92,7.92,0,0,1-6.41,8.75c-22.76,3.8-39.64,24.79-39.27,48.82l1.43,92.15a49.64,49.64,0,0,0,9.56,28.72L231,763.86A125,125,0,0,0,289.56,808a15,15,0,0,1,9.49,16.2l-5.7,41.46C170.87,785.87,95.89,651.69,95.89,509.13ZM302.26,769.57a85.89,85.89,0,0,1-40.32-30.37l-31.77-43.4a8.19,8.19,0,0,1-1.57-4.72l-1.42-92.15a7.94,7.94,0,0,1,6.45-8c24.55-4.09,41.68-27.49,39-53.26l-2.72-26.18a49.25,49.25,0,0,0-18.59-33.84l-20-15.48a122.47,122.47,0,0,0-74.43-25.63H143.67A83,83,0,0,1,130,435.37l-26.62-4.48c18.89-98.62,73.23-187.75,154.48-252.66A458.4,458.4,0,0,1,456.25,86.87a89.31,89.31,0,0,1,24.9,35.89l1.11,2.91a93.23,93.23,0,0,1,5.47,22.73l1,8.87A93.31,93.31,0,0,1,482,203.6l-10.6,25.18a88.41,88.41,0,0,1-32.92,39.84l-13.2,8.67a46.29,46.29,0,0,0-20.41,40.93l1.78,37.19a5,5,0,0,1-1.48,3.89,4.64,4.64,0,0,1-3.79,1.37,4.82,4.82,0,0,1-3.79-2.62l-16.22-31.41A44.42,44.42,0,0,0,354.6,304.3l-57.32-16.68a64.17,64.17,0,0,0-45.44,3.67l-13.65,6.47c-28.71,13.61-44.41,46.75-37.31,78.8A70.16,70.16,0,0,0,218.67,410l37.24,38.84a86.16,86.16,0,0,1,6,6.93l25.54,32.83a57.9,57.9,0,0,0,45.88,22.81h.18l69.56-.22h.06a20,20,0,0,1,17.36,10.39,59.41,59.41,0,0,0,38.65,29.2l26.06,5.82a20.16,20.16,0,0,1,13.43,10.46l12.59,24.06a52.79,52.79,0,0,0,22.07,22.36l59.16,31.35a13.86,13.86,0,0,1,2.72,22.21l-22.47,20.73a54.61,54.61,0,0,0-14.23,21.55L553.55,723a15.83,15.83,0,0,1-8.52,9.21L521.1,742.53c-20.39,8.82-33.57,29.39-33.57,52.4a16.7,16.7,0,0,1-1.76,7.46L424.6,924.08a458.31,458.31,0,0,1-94.82-37L337.63,830C341.25,803.64,326.37,778.24,302.26,769.57ZM546.09,940a473.06,473.06,0,0,1-81.88-7.14L520.3,821.26a59,59,0,0,0,6.22-26.33A16,16,0,0,1,536,780.08L560,769.73a55.93,55.93,0,0,0,30.09-32.48l4.9-13.62a13.53,13.53,0,0,1,3.56-5.38L621,697.52a54.94,54.94,0,0,0,17.13-33.86c2.71-22.6-8.55-44.71-28-55l-59.16-31.35a13.15,13.15,0,0,1-5.51-5.59l-12.59-24.06a59.36,59.36,0,0,0-39.48-30.74l-26.06-5.82a20.19,20.19,0,0,1-13.15-9.93c-10.56-18.87-30.09-30.56-51-30.56h-.18l-69.55.22h-.07A19.72,19.72,0,0,1,317.7,463L292.17,430.2a128.72,128.72,0,0,0-8.7-10.07L246.23,381.3a29.06,29.06,0,0,1-7.37-13.87c-2.94-13.29,3.56-27,15.46-32.67L268,328.29a26.57,26.57,0,0,1,18.84-1.52l57.31,16.68a4.89,4.89,0,0,1,2.95,2.46l16.22,31.41a43.7,43.7,0,0,0,34.41,23.81,42.67,42.67,0,0,0,34.42-12.45,46.64,46.64,0,0,0,13.48-35.3l-1.78-37.19a5.1,5.1,0,0,1,2.24-4.51L459.27,303a128.44,128.44,0,0,0,47.84-57.89l10.6-25.18a135.51,135.51,0,0,0,9.72-67.33l-1-8.87a134.91,134.91,0,0,0-8-33l-1.11-2.92A132.14,132.14,0,0,0,503,80.23h0c14.3-1.3,28.68-2,43-2,94.17,0,183.92,27.38,260.25,79.28l.14,18.82a9.56,9.56,0,0,1-9,9.76l-33.77,1c-21.89.63-40.66,16.6-45.65,38.83l-9,39.92c-4.84,21.55,4.65,44.26,23.1,55.21L772,344.75a38.93,38.93,0,0,0,42.18-1.34l28.3-19.27a43,43,0,0,0,18.33-36.82,1.48,1.48,0,0,1,.54-1.27,1.37,1.37,0,0,1,1.3-.32l43.71,10.46c1.09.26,2.2.48,3.31.65l30.9,4.62h0a418.62,418.62,0,0,1,33.22,73l-30.19-7.61c-1.2-.3-2.43-.56-3.66-.77l-33-5.54a106.93,106.93,0,0,0-97.1,33.1l-5.21,6.2a116.91,116.91,0,0,0-28.77,57.56l-12.57,66.24a119.27,119.27,0,0,0,7,68.31c15.69,37.7,49.76,64,88.91,68.68l6.11.73a107,107,0,0,0,49.84-6l20.79-7.77a9.07,9.07,0,0,1,10.35,3l2.73,3.51a10,10,0,0,1,2.07,5.81l1,35.33C877.54,844.09,718.72,940,546.09,940ZM979,628,976.7,625a47.59,47.59,0,0,0-37.55-18.66,46.2,46.2,0,0,0-16.24,2.95l-20.79,7.76A69.11,69.11,0,0,1,869.84,621l-6.1-.72c-25.36-3-47.43-20.06-57.59-44.48a77.35,77.35,0,0,1-4.56-44.23l12.57-66.25A75.72,75.72,0,0,1,832.8,428l5-5.38a69.9,69.9,0,0,1,63-22l33,5.54c.24,0,.47.09.71.15l52,13.11A415.76,415.76,0,0,1,979,628Z"/><path class="cls-3" d="M318.41,116.13c206.66,64.5,275.21,253.3,262,433.38L509,440.94c-20.51-24.27-58.11-29.48-84-11.61s-30.19,52-9.68,76.3l147.84,220a63.73,63.73,0,0,0,40,21.6c15.2,2.1,31.06-1.06,44-10L862,546.65c25.87-17.86,30.2-52,9.69-76.3s-58.11-29.48-84-11.61L695.31,564c46-242.32-101.79-476.73-240.9-494.89l-114,36C330.51,106.08,308.84,113.14,318.41,116.13Z"/><text class="cls-4" transform="translate(1178.91 833.84)">POINTLE</text><path d="M878.63,706A16.35,16.35,0,0,0,855,708.68a376.88,376.88,0,0,1-24.69,29,18.06,18.06,0,0,0,.2,24.79,16.33,16.33,0,0,0,23.77-.2,415.06,415.06,0,0,0,27-31.64A18.05,18.05,0,0,0,878.63,706Z"/><path d="M789,775.45c-63.56,50.24-140.6,79.37-222.77,84.21-9.27.55-16.35,8.83-15.83,18.5.51,9.33,7.92,16.54,16.77,16.54q.48,0,1,0c88.87-5.25,172.27-36.81,241.18-91.28a18,18,0,0,0,3.25-24.56A16.36,16.36,0,0,0,789,775.45Z"/></g></svg>