<svg xmlns="http://www.w3.org/2000/svg" viewBox="0 0 978.36 943"><defs><style>.cls-1{fill:#50a5dc;}.cls-2{fill:#7ac943;}.cls-3{fill:#fff;stroke:#000;stroke-miterlimit:10;stroke-width:29px;}</style></defs><g id="Layer_1" data-name="Layer 1"><path class="cls-1" d="M251,779.16a105.83,105.83,0,0,1-49.47-37.26l-31.76-43.39a29.2,29.2,0,0,1-5.57-16.73l-1.42-92.15c-.22-14.08,9.52-26.19,22.86-28.41,14.28-2.39,24.26-16,22.71-31L205.64,504a28.63,28.63,0,0,0-10.83-19.7l-20-15.47A102.61,102.61,0,0,0,112,447.22H98.76a101,101,0,0,1-16.83-1.41L35.85,438a436,436,0,0,0-4.36,61.46c0,165.92,93.25,310.89,232.13,389.26l9.8-71.3C275.72,800.74,266.31,784.67,251,779.16Z" transform="translate(-12 -28)"/><path class="cls-1" d="M919.37,631.7l-2.73-3.52a28.06,28.06,0,0,0-32.07-9.37l-20.79,7.77a87.62,87.62,0,0,1-41.06,4.95l-6.1-.73c-32.36-3.85-60.29-25.42-73.25-56.58a98.69,98.69,0,0,1-5.8-56.27l12.57-66.24a96.43,96.43,0,0,1,23.7-47.41l5-5.39C799.52,376.45,829.49,366,859,371l33,5.54c.73.13,1.46.28,2.18.46l63.52,16A438.3,438.3,0,0,0,907.5,273.07l-39.94-6c-.57-.09-1.14-.2-1.71-.34L822.14,256.3c-13.45-3.22-26.17,7.72-25.69,22.1a22.2,22.2,0,0,1-9.5,19.1l-28.31,19.27a20.24,20.24,0,0,1-21.87.69L696.9,293.79c-11.07-6.58-16.68-20-13.77-32.92l9-39.92c3-13.26,14.15-22.77,27.21-23.15l33.78-1c15.66-.45,28.1-13.89,28-30.24L780.83,137C702.7,81.29,606,48.32,501.18,48.32a490.84,490.84,0,0,0-84.87,7.37,109.07,109.07,0,0,1,38.05,50l1.11,2.92a114.17,114.17,0,0,1,6.71,27.88l1,8.86a114.22,114.22,0,0,1-8.2,56.83l-10.6,25.18A108.86,108.86,0,0,1,404,276.19l-13.2,8.67a25.65,25.65,0,0,0-11.33,22.72l1.78,37.19c.75,15.44-11.82,28-26.58,26.5a24.3,24.3,0,0,1-19.1-13.21l-16.22-31.41a24.5,24.5,0,0,0-14.87-12.4l-57.31-16.68A45.28,45.28,0,0,0,215,300.16l-13.65,6.47c-20.39,9.67-31.43,33-26.39,55.74h0A49.64,49.64,0,0,0,187.54,386l37.24,38.83a108.59,108.59,0,0,1,7.35,8.51l25.53,32.83a39,39,0,0,0,30.87,15.29l69.55-.23a39.33,39.33,0,0,1,34.32,20.48,39.75,39.75,0,0,0,25.9,19.57l26.06,5.82a39.78,39.78,0,0,1,26.45,20.6L483.4,571.8a33,33,0,0,0,13.8,14l59.15,31.35c12.2,6.47,19.21,20.22,17.51,34.39a34.32,34.32,0,0,1-10.71,21.16L540.68,693.4a34.08,34.08,0,0,0-8.89,13.47l-4.89,13.62a35.77,35.77,0,0,1-19.32,20.84l-23.93,10.35c-13,5.64-21.53,18.91-21.53,33.62a37.65,37.65,0,0,1-4,16.9L389.91,937.91a489.44,489.44,0,0,0,111.27,12.77c188.42,0,350.89-106.59,425.72-260.41l-1.13-40.56A30.75,30.75,0,0,0,919.37,631.7Z" transform="translate(-12 -28)"/><path class="cls-2" d="M462.11,785.3c0-14.72,8.5-28,21.54-33.62l23.93-10.35a35.75,35.75,0,0,0,19.31-20.84l4.9-13.62a33.9,33.9,0,0,1,8.89-13.47l22.47-20.73a34.35,34.35,0,0,0,10.71-21.16c1.69-14.17-5.31-27.92-17.51-34.39l-59.16-31.35a33.19,33.19,0,0,1-13.79-14l-12.59-24.07a39.79,39.79,0,0,0-26.46-20.59l-26.06-5.83a39.75,39.75,0,0,1-25.9-19.56,39.3,39.3,0,0,0-34.31-20.48l-69.56.22a39,39,0,0,1-30.86-15.28l-25.54-32.84a108,108,0,0,0-7.34-8.5L187.54,386A49.64,49.64,0,0,1,175,362.37h0c-5-22.76,6-46.07,26.39-55.74L215,300.16a45.26,45.26,0,0,1,32.13-2.59l57.32,16.68a24.5,24.5,0,0,1,14.87,12.4l16.22,31.41a24.29,24.29,0,0,0,19.1,13.21c14.75,1.47,27.32-11.06,26.58-26.5l-1.78-37.19a25.65,25.65,0,0,1,11.33-22.72l13.2-8.67a108.86,108.86,0,0,0,40.39-48.87L455,202.14a114.34,114.34,0,0,0,8.2-56.83l-1-8.87a114.2,114.2,0,0,0-6.71-27.87l-1.11-2.92a109,109,0,0,0-38.05-50C218,90.45,63.25,244.77,35.85,438l46.08,7.77a101,101,0,0,0,16.83,1.41H112a102.66,102.66,0,0,1,62.83,21.63l20,15.48A28.6,28.6,0,0,1,205.64,504l2.71,26.18c1.55,15-8.43,28.62-22.71,31-13.34,2.23-23.08,14.34-22.86,28.42l1.42,92.15a29.15,29.15,0,0,0,5.57,16.72l31.76,43.4A105.83,105.83,0,0,0,251,779.16c15.31,5.51,24.72,21.58,22.43,38.3l-9.8,71.3A477.21,477.21,0,0,0,389.91,937.9l68.22-135.7A37.8,37.8,0,0,0,462.11,785.3Z" transform="translate(-12 -28)"/><path class="cls-2" d="M753.09,196.82l-33.78,1c-13.06.38-24.23,9.89-27.21,23.16l-9,39.92c-2.91,12.94,2.7,26.34,13.78,32.91l39.86,23.68a20.28,20.28,0,0,0,21.87-.69L787,297.49a22.18,22.18,0,0,0,9.5-19.1c-.48-14.37,12.24-25.32,25.69-22.1l43.71,10.47c.57.13,1.14.25,1.71.33l39.94,6A460.11,460.11,0,0,0,780.83,137l.23,29.59C781.19,182.92,768.75,196.36,753.09,196.82Z" transform="translate(-12 -28)"/><path class="cls-2" d="M957.66,393l-63.52-16c-.72-.18-1.45-.33-2.18-.45L859,371c-29.51-5-59.47,5.48-80.19,28l-5,5.38a96.38,96.38,0,0,0-23.7,47.42L737.57,518a98.71,98.71,0,0,0,5.8,56.27c13,31.16,40.89,52.73,73.25,56.58l6.1.73a87.62,87.62,0,0,0,41.06-5l20.79-7.76a28.06,28.06,0,0,1,32.07,9.37l2.73,3.52a30.72,30.72,0,0,1,6.4,18l1.13,40.57A435.91,435.91,0,0,0,957.66,393Z" transform="translate(-12 -28)"/><path d="M976.51,387.81h0A458.94,458.94,0,0,0,924,262.22a477.12,477.12,0,0,0-132.15-142C707.22,59.89,606.71,28,501.18,28a511,511,0,0,0-88.1,7.65A496.83,496.83,0,0,0,189.19,136.34C94.46,212,33.15,318.12,16.56,435.07A457.37,457.37,0,0,0,79,737.85c42.4,69.62,103,128,175.31,168.78h0a497.14,497.14,0,0,0,131.3,51.1A509.06,509.06,0,0,0,501.18,971c94.6,0,186.4-26.07,265.46-75.41,77.24-48.18,138.67-116,177.64-196.13a457,457,0,0,0,32.23-311.65ZM865,245.71l-38.52-9.23a39,39,0,0,0-34.83,8.59,42.7,42.7,0,0,0-14.7,34,1.59,1.59,0,0,1-.69,1.38L748,299.75a1.46,1.46,0,0,1-1.57.05l-39.86-23.68a9.9,9.9,0,0,1-4.45-10.62l9-39.92a9.39,9.39,0,0,1,8.78-7.47l33.78-1c22.65-.66,41.51-17.91,45.93-40.25A435.46,435.46,0,0,1,865,245.71ZM51,499.5c0-12.61.59-25.34,1.75-38l26.09,4.39a119.87,119.87,0,0,0,19.94,1.67H112a84.3,84.3,0,0,1,51.22,17.64l20,15.47a8.11,8.11,0,0,1,3.06,5.57L189,532.39a8,8,0,0,1-6.41,8.76c-22.76,3.79-39.64,24.78-39.27,48.81l1.43,92.15a49.55,49.55,0,0,0,9.56,28.72L186,754.23a125,125,0,0,0,58.61,44.14,15,15,0,0,1,9.48,16.2L248.44,856C126,776.24,51,642.07,51,499.5ZM257.35,760A86.05,86.05,0,0,1,217,729.57l-31.76-43.4a8.17,8.17,0,0,1-1.57-4.72l-1.42-92.14a8,8,0,0,1,6.45-8c24.54-4.09,41.68-27.49,39-53.26L225,501.85A49.27,49.27,0,0,0,206.42,468l-20-15.47A122.41,122.41,0,0,0,112,426.89H98.76A81.87,81.87,0,0,1,85,425.74l-26.62-4.48C77.31,322.64,131.64,233.52,212.9,168.6A458.4,458.4,0,0,1,411.34,77.24a89.31,89.31,0,0,1,24.9,35.89l1.11,2.92a93.12,93.12,0,0,1,5.47,22.73l1,8.86A93.31,93.31,0,0,1,437.11,194l-10.6,25.18A88.47,88.47,0,0,1,393.59,259l-13.21,8.67A46.35,46.35,0,0,0,360,308.59l1.79,37.2a5,5,0,0,1-1.48,3.88,4.57,4.57,0,0,1-3.79,1.37,4.8,4.8,0,0,1-3.79-2.62L336.48,317a44.4,44.4,0,0,0-26.79-22.35L252.37,278a64.17,64.17,0,0,0-45.44,3.67l-13.65,6.47c-28.71,13.61-44.41,46.76-37.32,78.8a70.22,70.22,0,0,0,17.8,33.48L211,439.25a86.16,86.16,0,0,1,6,6.93L242.51,479a57.93,57.93,0,0,0,45.89,22.81h.18l69.56-.22h.06A20,20,0,0,1,375.56,512a59.38,59.38,0,0,0,38.65,29.2L440.27,547a20.18,20.18,0,0,1,13.43,10.46l12.59,24.06a52.74,52.74,0,0,0,22.07,22.36l59.16,31.35a13.86,13.86,0,0,1,2.72,22.21l-22.47,20.73a54.43,54.43,0,0,0-14.23,21.56l-4.9,13.62a15.82,15.82,0,0,1-8.52,9.2l-23.94,10.35c-20.38,8.81-33.56,29.38-33.56,52.39a16.7,16.7,0,0,1-1.76,7.46L379.69,914.45a458.31,458.31,0,0,1-94.82-37l7.85-57.06C296.34,794,281.46,768.62,257.35,760Zm243.83,170.4a472.08,472.08,0,0,1-81.88-7.14l56.08-111.58a58.85,58.85,0,0,0,6.22-26.33,16.07,16.07,0,0,1,9.51-14.85l23.94-10.35a55.9,55.9,0,0,0,30.09-32.48L550,714a13.5,13.5,0,0,1,3.56-5.39l22.46-20.73A55,55,0,0,0,593.2,654c2.71-22.6-8.55-44.71-28-55L506,567.65a13.19,13.19,0,0,1-5.51-5.58L487.92,538a59.31,59.31,0,0,0-39.48-30.73l-26.06-5.83a20.19,20.19,0,0,1-13.15-9.93c-10.56-18.86-30.1-30.56-51-30.56H358l-69.56.22h-.06a19.69,19.69,0,0,1-15.61-7.76l-25.53-32.83a127.06,127.06,0,0,0-8.7-10.08l-37.24-38.83A29,29,0,0,1,194,357.8c-2.94-13.29,3.56-27,15.46-32.67l13.65-6.47a26.66,26.66,0,0,1,18.83-1.52l57.32,16.68a4.93,4.93,0,0,1,3,2.46l16.22,31.41a43.69,43.69,0,0,0,34.41,23.82,42.67,42.67,0,0,0,34.42-12.46,46.66,46.66,0,0,0,13.48-35.29l-1.78-37.2a5.08,5.08,0,0,1,2.24-4.5l13.21-8.67a128.51,128.51,0,0,0,47.84-57.9l10.6-25.18A135.48,135.48,0,0,0,482.52,143l-1-8.86a135,135,0,0,0-8-33l-1.11-2.92a131.81,131.81,0,0,0-14.36-27.56h0c14.3-1.31,28.68-2,43-2,94.16,0,183.92,27.37,260.24,79.27l.15,18.82a9.56,9.56,0,0,1-9,9.76l-33.77,1c-21.88.63-40.65,16.6-45.65,38.83l-9,39.92c-4.85,21.56,4.65,44.26,23.1,55.21l39.86,23.68a38.93,38.93,0,0,0,42.18-1.34l28.3-19.27a43,43,0,0,0,18.33-36.82,1.49,1.49,0,0,1,.54-1.27,1.4,1.4,0,0,1,1.3-.32l43.71,10.47c1.09.26,2.2.47,3.31.64l30.9,4.62h0a418.62,418.62,0,0,1,33.22,73l-30.19-7.61c-1.2-.3-2.43-.56-3.66-.77l-33-5.54A106.92,106.92,0,0,0,765,384l-5.21,6.2A117,117,0,0,0,731,447.76L718.45,514a119.35,119.35,0,0,0,7,68.31c15.69,37.71,49.76,64,88.92,68.68l6.11.73a106.92,106.92,0,0,0,49.84-6l20.79-7.77a9.07,9.07,0,0,1,10.35,3l2.73,3.51a10.07,10.07,0,0,1,2.07,5.82l1,35.32C832.63,834.46,673.81,930.35,501.18,930.35Zm432.88-312-2.27-2.92a47.59,47.59,0,0,0-37.55-18.66A46.42,46.42,0,0,0,878,599.68l-20.79,7.76a69.26,69.26,0,0,1-32.28,3.9l-6.11-.73c-25.35-3-47.42-20.06-57.58-44.48a77.26,77.26,0,0,1-4.56-44.23l12.57-66.25a75.68,75.68,0,0,1,18.64-37.27l5-5.38a69.88,69.88,0,0,1,63-22l33,5.54.71.15,52,13.11a415.76,415.76,0,0,1-7.52,208.49Z" transform="translate(-12 -28)"/></g><g id="Layer_2" data-name="Layer 2"><path class="cls-3" d="M337.1,86.68c158,55.6,239.6,245.83,225.47,414L456,366.24c-15.29-22.18-44.17-26.21-64.5-9s-24.43,49.17-9.14,71.35L545.44,665.24c7.65,11.1,18.69,17.65,30.36,19.27a43.26,43.26,0,0,0,34.14-10.28L826.85,490.52c20.34-17.22,24.43-49.17,9.14-71.36s-44.16-26.2-64.5-9L650.86,511.71C691.67,284.77,545.38,75.38,438.5,61.5L331.55,81.91C323.89,83,329.79,84.1,337.1,86.68Z" transform="translate(-12 -28)"/></g><g id="Layer_3" data-name="Layer 3"><path d="M833.72,696.33a16.35,16.35,0,0,0-23.63,2.72,378.94,378.94,0,0,1-24.69,29,18.06,18.06,0,0,0,.19,24.78,16.32,16.32,0,0,0,23.78-.2c9.49-10.07,18.56-20.72,27-31.64A18.05,18.05,0,0,0,833.72,696.33Z" transform="translate(-12 -28)"/><path d="M744.13,765.82c-63.57,50.25-140.6,79.37-222.77,84.22-9.27.54-16.36,8.82-15.83,18.49.5,9.33,7.92,16.54,16.77,16.54l1,0c88.87-5.24,172.27-36.81,241.18-91.28a18,18,0,0,0,3.25-24.56A16.37,16.37,0,0,0,744.13,765.82Z" transform="translate(-12 -28)"/></g></svg>